PathFileType        4      (X/Y/Z)      C:\Users\pc\Desktop\IMUTRC\Sujet_04\Sujet_04_velo_60.trc         
DataRate	CameraRate	NumFrames	NumMarkers	Units	OrigDataRate	OrigDataStartFrame	OrigNumFrames
60.0	60.0	4	64	mm	60.0	1	1257
Frame#	Time	pHipOrigin			pRightASI			pLeftASI			pRightCSI			pLeftCSI			pRightIschialTub			pLeftIschialTub			pSacrum			pL5SpinalProcess			pL3SpinalProcess			pT12SpinalProcess			pIJ			pT4SpinalProcess			pT8SpinalProcess			pPX			pC7SpinalProcess			pTopOfHead			pRightAuricularis			pLeftAuricularis			pBackOfHead			pRightAcromion			pLeftAcromion			pRightArmLatEpicondyle			pRightArmMedEpicondyle			pLeftArmLatEpicondyle			pLeftArmMedEpicondyle			pRightUlnarStyloid			pRightRadialStyloid			pRightOlecranon			pLeftUlnarStyloid			pLeftRadialStyloid			pLeftOlecranon			pRightTopOfHand			pRightPinky			pRightBallHand			pLeftTopOfHand			pLeftPinky			pLeftBallHand			pRightGreaterTrochanter			pRightKneeLatEpicondyle			pRightKneeMedEpicondyle			pRightPatella			pLeftGreaterTrochanter			pLeftKneeLatEpicondyle			pLeftKneeMedEpicondyle			pLeftPatella			pRightTibialTub			pRightLatMalleolus			pRightMedMalleolus			pLeftTibialTub			pLeftLatMalleolus			pLeftMedMalleolus			pRightHeelFoot			pRightFirstMetatarsal			pRightFifthMetatarsal			pRightPivotFoot			pRightHeelCenter			pRightToe			pLeftHeelFoot			pLeftFirstMetatarsal			pLeftFifthMetatarsal			pLeftPivotFoot			pLeftHeelCenter			pLeftToe			
		X1	Y1	Z1	X2	Y2	Z2	X3	Y3	Z3	X4	Y4	Z4	X5	Y5	Z5	X6	Y6	Z6	X7	Y7	Z7	X8	Y8	Z8	X9	Y9	Z9	X10	Y10	Z10	X11	Y11	Z11	X12	Y12	Z12	X13	Y13	Z13	X14	Y14	Z14	X15	Y15	Z15	X16	Y16	Z16	X17	Y17	Z17	X18	Y18	Z18	X19	Y19	Z19	X20	Y20	Z20	X21	Y21	Z21	X22	Y22	Z22	X23	Y23	Z23	X24	Y24	Z24	X25	Y25	Z25	X26	Y26	Z26	X27	Y27	Z27	X28	Y28	Z28	X29	Y29	Z29	X30	Y30	Z30	X31	Y31	Z31	X32	Y32	Z32	X33	Y33	Z33	X34	Y34	Z34	X35	Y35	Z35	X36	Y36	Z36	X37	Y37	Z37	X38	Y38	Z38	X39	Y39	Z39	X40	Y40	Z40	X41	Y41	Z41	X42	Y42	Z42	X43	Y43	Z43	X44	Y44	Z44	X45	Y45	Z45	X46	Y46	Z46	X47	Y47	Z47	X48	Y48	Z48	X49	Y49	Z49	X50	Y50	Z50	X51	Y51	Z51	X52	Y52	Z52	X53	Y53	Z53	X54	Y54	Z54	X55	Y55	Z55	X56	Y56	Z56	X57	Y57	Z57	X58	Y58	Z58	X59	Y59	Z59	X60	Y60	Z60	X61	Y61	Z61	X62	Y62	Z62	X63	Y63	Z63	X64	Y64	Z64	
1	0.0	4.919999564491574E-14	1250.01928	5.863427156544783E-14	70.30874773039085	1330.05292	164.1055675496928	96.56514286176973	1363.53812	-126.75020128574391	33.08236431392624	1410.1436	142.99227297293928	54.602268353744506	1437.52503	-95.11355667813376	-71.76753020672203	1189.95127	47.41186953436912	-61.02591048944115	1203.64199	-71.66289287868514	-68.88445117924456	1281.33679	-2.6658744153399	-14.330158021442015	1383.67488	12.918033816343765	49.8610530592538	1486.35524	29.42603799305621	113.2721939985729	1577.34145	44.20568216359732	377.21847761155436	1600.84384	82.76545442759169	264.4419257041709	1709.74207	72.69632614130379	188.72823258402804	1656.80464	59.229305694344006	276.88956390301337	1524.23289	64.63444714779261	313.50310869194766	1741.40184	81.64506210625927	560.7126312000283	1794.33927	121.2914719302425	465.4500815922929	1750.47194	173.45022970716676	484.62344156782865	1762.62245	38.0665464758448	453.15882867944396	1805.80525	107.06333090918338	288.474619947461	1684.81356	267.2918659328189	339.5135217008516	1712.42317	-107.35755060829564	308.1335146799237	1362.45428	294.3589979146386	268.3380714255876	1351.61579	241.51913657536355	389.0689195835301	1393.31543	-101.28091329339685	351.52444187834806	1386.92643	-46.0970065882895	396.15168677562497	1129.65508	210.2266071254473	442.79749278893246	1146.76848	230.5848565597845	266.296465092057	1349.90445	259.76380812228615	441.8161008939645	1158.69081	14.56191567675026	491.97073819722584	1176.88805	20.731467085410827	346.4313661412568	1382.19172	-79.0566530524061	585.4389870163196	1024.12249	315.8262227363938	497.1615573416699	1031.08194	258.98769021877354	451.2448794455047	1093.60287	221.03926747189345	653.815878004057	1046.42695	29.01992802421961	549.3684648955508	1058.40632	34.82304173373171	493.41550766028047	1124.12175	37.54004810959981	8.968368974485486	1226.68802	178.4174857892362	355.7662108510297	966.56445	215.96570434769689	368.0105790532546	959.94727	132.9377041576981	387.8499313971876	1002.61666	172.28931149574947	23.18519413972247	1235.70108	-175.68538840022342	295.1818056627326	896.11431	-168.9758583168784	303.80705135188623	896.34249	-85.21524949467704	334.3527783436866	928.05931	-127.97344078947333	378.07540833548114	906.89575	173.8635965460399	46.45599494666657	658.00997	115.08997009841777	63.716941623087436	658.97973	51.08609526390205	351.2120863452584	856.81055	-129.53524872639701	221.37452271529	460.1221	-163.04299499012384	226.4413435533983	458.41076	-96.92373676727465	-29.530833383565014	608.89453	66.33161334058687	120.96567046206181	514.71382	36.3352362641427	109.32907388097917	506.55644	119.82131944862401	135.1829309861387	497.31521	78.3937374135777	6.939901413419207	586.93234	69.23895582748867	209.8613145356029	446.14616	83.79351595141755	171.69956864222254	374.8974	-124.71175291445348	342.866209395263	361.26373	-70.70354946893517	348.39496315505704	352.59294	-154.72400675695565	369.36352737300194	354.58951	-109.76686747197084	214.15960096053806	372.84379	-121.7663137311732	459.3411494135113	344.89192	-102.90710959433821	
2	0.017	4.919999564491574E-14	1250.01928	5.863427156544783E-14	69.24138382354113	1331.59312	163.80973392321587	97.00916471669426	1362.68245	-127.19725334630215	31.968273793838968	1411.39858	141.84204412455662	54.75143836388759	1436.84049	-96.35572303389047	-71.89862339227298	1190.2365	47.521869778014775	-60.507044937470894	1202.95745	-71.57701058727072	-68.95226430651131	1281.16566	-3.2791685476045913	-14.677251330138994	1383.73193	11.794413993112713	49.19249888062376	1486.64046	28.27430108601697	112.38514862387643	1577.79781	43.23728113859288	376.0300760992586	1601.8136	83.39031343118626	263.02496975525935	1710.48365	72.69383506838341	187.52122154230292	1657.43213	58.67830860609976	275.93219257936494	1525.03151	64.46971313474275	312.0143263958719	1742.25751	82.00069527596015	559.0887412659358	1795.19494	122.72853780679554	463.656924576168	1751.27057	174.50807839919324	483.26878389550586	1763.64926	39.20323922906229	451.5997345227367	1806.71796	108.2226323234072	286.0862379632191	1685.61218	267.2853680678771	338.8495005912041	1713.39292	-107.17269900715978	306.40363895465134	1363.2529	294.6935381424342	266.6081880398708	1352.24328	241.85368323103518	387.6067527404821	1393.94292	-101.6922696746418	349.9889393969109	1387.55392	-46.59576098004993	394.3610220649888	1130.51075	209.86748578024168	441.08719428646435	1147.5671	230.23277344480232	264.4862219260482	1350.64603	260.0913242081789	439.8194916402872	1159.03307	13.779866651093727	490.0037617464578	1177.17327	20.073487103402385	344.9325282650761	1382.9333	-79.511712269131	583.8216090354894	1024.69294	314.8749078612732	495.41307974741267	1031.82352	258.1463679268543	449.46827710699483	1094.45854	220.51941247778328	651.8333375503822	1046.76922	28.07715301010296	547.422581386688	1058.69155	33.92396832252666	491.46260000951474	1124.46402	36.721342139131224	8.24658388980005	1230.16775	178.7997279840887	360.73394994369903	979.22836	224.90338273512862	373.47609075598893	970.61462	142.20235826574086	392.12098513909825	1014.82422	180.39671261350668	22.82003166687781	1234.10383	-175.6768485392195	282.06153052570403	884.70538	-167.5728192329001	290.5697441688647	884.87652	-83.86292972763711	322.3279918577604	915.33836	-126.59603537682729	383.8322205957099	918.98921	180.72429823905787	55.51078134762588	667.13711	116.65147936051079	72.3332222523685	670.21752	52.56875280435964	337.915499468098	845.51571	-128.43106827922156	208.1547455637028	449.11248	-165.1308647717132	213.10454201626254	446.94479	-99.06233229367848	-20.22792298363011	618.47803	67.83385576429318	130.9707822960018	525.49526	38.14185217532982	119.37788731783074	517.39492	121.59127841499907	145.30508006137939	508.26778	80.25109439046815	16.35281848487586	596.85811	70.87229909719034	220.41493881274283	457.66918	85.81008443023549	157.17836595693637	364.40119	-127.19692313303763	327.9883828655677	348.08642	-72.8150032653502	333.5171442858062	339.58677	-156.83546698124673	354.4786767014038	341.12697	-111.79795382764937	199.5876636374246	361.72009	-124.13443904801217	444.20113651271413	330.06031	-104.79856290346191	
3	0.033	4.919999564491574E-14	1250.01928	5.863427156544783E-14	68.17401348881528	1333.13333	163.51389263629454	97.40948250357053	1361.82678	-127.60762028540724	30.897886109231642	1412.65356	140.65514424304135	54.86392968045361	1436.15596	-97.64158579725103	-72.02971657782393	1190.46467	47.63187002166045	-60.06853916579266	1202.21587	-71.49815886563528	-69.02007743377804	1280.99452	-3.89246267986929	-15.024352299280403	1383.84602	10.670800597757756	48.530968843896595	1486.86864	27.042196738241273	111.46142455560296	1578.25416	42.225183705984605	374.8049958933858	1602.78336	83.97147602717692	261.65171021395173	1711.22523	72.65466530188598	186.35791333605775	1658.05962	58.09064048472288	275.0114935214174	1525.83014	64.34866786885226	310.5255505276723	1743.11318	82.35633610610547	557.5085541673232	1796.05061	124.12893265021594	461.8707929345144	1752.01215	175.48554556216274	481.8774539574822	1764.67606	40.29624323512036	450.0476785962528	1807.63068	109.30156752946286	283.6978572115455	1686.35376	267.27885611461477	338.10510561294404	1714.36268	-106.99487920837132	304.5933957886425	1363.99448	295.0210542283269	264.8783123145985	1352.87077	242.1882234588308	386.1516176997814	1394.57041	-102.18399992449935	348.4901015207302	1388.23845	-47.05082019677485	392.5633255520053	1131.42347	209.5887383036487	439.2965295758282	1148.42277	229.87365209959677	262.7563462007759	1351.33057	260.4258644359744	437.8228811540416	1159.43239	12.997831713757819	488.0438158654687	1177.45849	19.33514734110196	343.3970257836389	1383.61784	-80.01046666089142	582.1675600215265	1025.20634	313.87989015067274	493.70126552584355	1032.50805	257.34875489829096	447.73537637139657	1095.31421	219.96290053886113	649.8507970967073	1047.05444	27.13437799598637	545.4330027027897	1059.03381	33.06155951657814	489.50968593087293	1124.74924	35.90262850821824	7.488126539413656	1233.64747	179.13828143178176	365.35761950542906	992.23454	233.6085075543677	378.68493093829943	981.68128	151.16112316720182	396.1720396262859	1027.31699	188.2419132718415	22.44783096380972	1232.56362	-175.5879424700475	268.53942065012984	873.80986	-166.2049290350773	276.9235652496425	873.8669	-82.46540672690514	309.82101085299655	903.01671	-125.26080942011575	389.62569746119516	931.13972	187.6286951071114	64.49926267997505	676.54948	118.04523083179636	80.94950930952567	681.68349	54.05141800526166	324.6118884490346	834.27792	-127.24652039130966	194.9349825004362	438.10287	-167.21873332073423	199.72404530409136	435.42177	-101.16426321482581	-10.968707758730705	628.11857	69.37276279325599	141.01960339329776	536.21965	39.911804713828744	129.41967018490334	528.2334	123.4415971616661	155.47092554422392	519.22035	82.0717726737816	25.809431963936365	606.78388	72.46896367331496	230.93188439630572	469.1922	87.78295650144955	142.61346686404633	353.96202	-129.64541465804467	313.06686116083694	334.9091	-74.88979245650869	318.719683964279	326.58059	-158.93988254743832	339.5571473362286	327.66443	-113.8727365909318	185.01573397475562	350.59638	-126.50257079272718	429.14147573176456	315.2287	-106.68297921493055	
4	0.05	4.919999564491574E-14	1250.01928	5.863427156544783E-14	67.39143818619766	1334.21718	163.2024873464664	97.83943432592434	1361.14225	-127.89393226918483	30.08416228460382	1413.56628	139.774139995984	54.98497494634407	1435.64255	-98.56228485519858	-72.11711458833938	1190.63581	47.70520566004957	-59.7104149231714	1201.70247	-71.42633251847106	-69.02159315287906	1280.88043	-4.337992593450416	-15.275507736458032	1383.90306	9.839007608982234	48.11907975781439	1487.09682	26.196341377339444	110.83807484323334	1578.53939	41.48230444682554	373.95914819292847	1603.4679	84.38335868538306	260.71694755130954	1711.73863	72.69436777322063	185.53868108862804	1658.45893	57.73553359198313	274.3755971560224	1526.34354	64.21205217217891	309.4893287149566	1743.68363	82.63009377641335	556.3146301439051	1796.6781	125.27968777555967	460.58093103957685	1752.58259	176.34447385305097	480.94572396561034	1765.41764	41.22699144529679	448.87484108686385	1808.25817	110.21122156516563	282.07646477824954	1686.86717	267.2989737027008	337.68218559293757	1715.21835	-106.78894109320633	303.2216443059915	1364.56493	295.4274208032866	263.50656725982344	1353.32713	242.59459769423503	385.04055095745167	1395.1979	-102.44316251784363	347.3860665807479	1388.86595	-47.39035665873172	391.1744943473464	1132.05096	209.26477993291917	437.9076983711693	1149.05026	229.54969372886723	261.34089954308934	1351.84397	260.8688956161908	436.4255036605027	1159.77466	12.308703209739207	486.6831094050624	1177.74372	18.68972167256328	342.3296618767892	1384.24533	-80.3063002873683	580.9520091187975	1025.60565	312.96373058958386	492.3912924706962	1033.0785	256.5862984163276	446.28024133069584	1095.9417	219.47117028900357	648.4674743148503	1047.39671	26.284522270939306	544.0496940092532	1059.31904	32.211705024099416	488.1123148652102	1125.03447	35.213507664644055	6.824105429766163	1236.4997	179.32313303291758	370.40519333399766	1005.29776	240.24518787975242	384.3543451880127	993.31838	158.09516049860892	400.50886449940106	1040.20908	194.2090640647769	21.921941269936568	1231.36568	-175.5934573207254	255.7672218360621	864.56862	-165.5407624182367	264.15136643557474	864.51158	-81.80124011006454	298.0639332492947	892.46345	-124.62930061651026	395.86017117127903	943.6325	193.19498774788883	74.61588281621725	685.04913	120.42847626999165	90.62060719263118	691.72335	56.43617273468187	312.06521906125664	824.35215	-126.84605586467195	181.21894845788506	428.86163	-169.18804890935348	185.9276514812482	425.78122	-103.14060937322408	-0.23023954089937604	636.04778	72.05335880959755	152.905801726147	546.08838	42.89527258687064	141.47363396900442	538.21622	126.35875353822178	167.56156036145762	529.3743	85.03263188581718	36.78899361096432	615.22648	75.17065263156182	243.73877535922634	480.42999	90.88746197993747	127.46490001392473	345.40532	-131.9020316725814	297.5024048604878	323.32904	-77.02083113617242	303.0748614557618	315.11461	-161.07795945732548	323.86863608055194	315.7421	-115.97414123511801	169.77977554199467	341.35515	-128.68584450843034	413.2048328166678	301.82321	-108.7251105928539	
